<svg xmlns="http://www.w3.org/2000/svg" viewBox="0 0 1200 800" fill="none">
  <defs>
    <linearGradient id="g" x1="0" y1="0" x2="1" y2="1">
      <stop offset="0" stop-color="#090551" stop-opacity=".18"/>
      <stop offset=".55" stop-color="#0000fe" stop-opacity=".16"/>
      <stop offset="1" stop-color="#060445" stop-opacity=".14"/>
    </linearGradient>
    <filter id="b" x="-20%" y="-20%" width="140%" height="140%">
      <feGaussianBlur stdDeviation="12"/>
    </filter>
  </defs>

  <rect width="1200" height="800" fill="url(#g)"/>

  <!-- soft route arcs -->
  <path d="M140 560 C 360 220, 840 220, 1060 560" stroke="#0000fe" stroke-opacity=".20" stroke-width="4" stroke-dasharray="10 14"/>
  <path d="M180 610 C 420 300, 780 300, 1020 610" stroke="#090551" stroke-opacity=".14" stroke-width="3" stroke-dasharray="8 12"/>

  <!-- airplane silhouettes -->
  <g filter="url(#b)" opacity=".75">
    <path d="M260 220h54l40-76c4-7 11-11 19-11h28l-26 87h260c18 0 32 14 32 32s-14 32-32 32H398l26 87h-28c-8 0-15-4-19-11l-40-76h-54c-9 0-16-7-16-16v-48c0-9 7-16 16-16Z" fill="#0000fe" fill-opacity=".12"/>
    <path d="M720 170h42l31-58c3-5 8-8 14-8h20l-20 67h210c14 0 26 12 26 26s-12 26-26 26H807l20 67h-20c-6 0-11-3-14-8l-31-58h-42c-7 0-12-5-12-12v-36c0-7 5-12 12-12Z" fill="#090551" fill-opacity=".10"/>
  </g>
</svg>
